<?xml version="1.0" encoding="UTF-8"?>
<svg version="1.1" xmlns="http://www.w3.org/2000/svg" width="1277" height="317">
<path d="M0 0 C12.87 0 25.74 0 39 0 C43.53474526 17.77791875 48.05831898 35.55857107 52.5633297 53.34404564 C54.65701349 61.60838602 56.75512664 69.87154774 58.86474609 78.13183594 C68.59733405 116.25062868 77.92330513 154.27856024 85 193 C85.25238686 191.80577927 85.25238686 191.80577927 85.50987244 190.58743286 C85.97448623 188.38901636 86.43920734 186.19062253 86.90402222 183.99224854 C87.37707546 181.75280393 87.84839768 179.51299341 88.31860352 177.27294922 C93.97585443 150.70583786 100.61105525 124.38668743 107.38101578 98.08641815 C108.07097157 95.40457113 108.75961525 92.72239044 109.44784546 90.0401001 C117.15885352 59.98937784 125.00199574 29.97571346 133 0 C146.53 0 160.06 0 174 0 C174.73001221 2.86469971 175.46002441 5.72939941 176.2121582 8.6809082 C178.67459327 18.34382543 181.13724943 28.00668629 183.60000324 37.66952229 C185.37609081 44.63819318 187.15202402 51.6069034 188.92782116 58.57564831 C190.07771319 63.08791421 191.22784712 67.60011846 192.37795448 72.11232948 C193.23992816 75.49474379 194.10145459 78.87727179 194.9629364 82.2598114 C197.67860462 92.91924459 200.40273973 103.57635735 203.1496582 114.2277832 C203.88994108 117.10325558 204.63001963 119.97878049 205.37006187 122.8543148 C206.03893337 125.44860515 206.71147485 128.04192318 207.38423157 130.63520813 C212.62192791 150.9273823 216.95522063 171.43929809 221 192 C222.69737093 184.84639381 224.29008454 177.68011234 225.77734375 170.48046875 C233.65972764 132.60348018 243.30838751 95.15830925 252.81750488 57.66497803 C253.935206 53.25726477 255.04969819 48.84874593 256.16308594 44.43994141 C257.99992806 37.16711771 259.84198711 29.89562817 261.6875 22.625 C261.95962311 21.55134186 262.23174622 20.47768372 262.51211548 19.37149048 C263.25940001 16.42668204 264.00989903 13.48271587 264.76171875 10.5390625 C264.97738495 9.68798416 265.19305115 8.83690582 265.41525269 7.96003723 C266.88471269 2.23057461 266.88471269 2.23057461 268 0 C280.87 0 293.74 0 307 0 C304.68268726 9.84857913 302.37796292 19.62776342 299.71386719 29.37524414 C299.41001162 30.4962149 299.10615604 31.61718567 298.79309273 32.77212524 C297.79707209 36.44387997 296.79700693 40.11451946 295.796875 43.78515625 C295.08204972 46.41573614 294.36808907 49.0465505 293.65408325 51.67735291 C291.94519072 57.97179584 290.23325951 64.26540811 288.52011955 70.55869621 C287.14085195 75.62569206 285.76269 80.69298742 284.38531494 85.76049805 C284.18952673 86.48082108 283.99373852 87.20114412 283.79201734 87.94329512 C283.39580045 89.40103652 282.99958672 90.85877877 282.60337615 92.31652188 C279.43332756 103.97942475 276.2610515 115.64172003 273.08704972 127.30354762 C269.44083501 140.70037968 265.80001147 154.0986636 262.16357422 167.49815369 C260.1814048 174.80168092 258.19675082 182.10453179 256.21094513 189.40707111 C254.91759625 194.1633258 253.62522052 198.91983938 252.33532715 203.67703247 C251.14921517 208.05105916 249.95994576 212.42421411 248.76803207 216.79666328 C248.33920401 218.37193628 247.91153507 219.94752534 247.48511124 221.52345085 C246.9135865 223.63498325 246.3379809 225.7453588 245.76123047 227.85546875 C245.44266083 229.02746826 245.12409119 230.19946777 244.79586792 231.40698242 C244 234 244 234 243 235 C239.89748799 235.08874135 236.8173188 235.11518455 233.71484375 235.09765625 C232.78402481 235.0962413 231.85320587 235.09482635 230.8941803 235.09336853 C227.90858809 235.08775172 224.92306971 235.0751964 221.9375 235.0625 C219.91862087 235.05748716 217.89974057 235.05292388 215.88085938 235.04882812 C210.92054598 235.03862592 205.9602823 235.01986055 201 235 C196.84859251 220.63461232 192.86633852 206.23175747 189.0078125 191.78515625 C188.45277512 189.7122354 187.89758555 187.6393553 187.34225464 185.56651306 C185.89384947 180.15848651 184.44754872 174.74989942 183.00170898 169.34118652 C181.55326962 163.92436213 180.1027114 158.50810522 178.65234375 153.09179688 C176.96479032 146.78966936 175.27799177 140.48734432 173.59490967 134.184021 C171.26177469 125.44682839 168.92638408 116.71047747 166.55566406 107.98339844 C162.7908556 94.10043545 159.34183264 80.22593983 156.5 66.125 C155.87709298 63.06985477 155.25193266 60.01517106 154.62695312 56.96044922 C154.31673727 55.44278673 154.0065539 53.92511761 153.69641113 52.40744019 C153.46659546 51.28298492 153.23677979 50.15852966 153 49 C152.85373672 49.83917969 152.70747345 50.67835937 152.55677795 51.54296875 C147.86075904 78.02097268 141.32105356 103.85911332 134.30016327 129.80570221 C132.83845406 135.21816692 131.3909702 140.63443506 129.94189453 146.05029297 C127.40151902 155.53706971 124.84999096 165.02079292 122.29159927 174.5027256 C119.91412469 183.31474277 117.54736417 192.12961112 115.18359375 200.9453125 C112.1386154 212.30131066 109.06935945 223.65050809 106 235 C91.81 235 77.62 235 63 235 C51.87193087 194.63132044 40.90542148 154.22021772 30.007164 113.78891659 C28.5635902 108.43343703 27.11976294 103.07802584 25.67578125 97.72265625 C25.25106663 96.14739387 25.25106663 96.14739387 24.81777191 94.540308 C21.14581723 80.92343914 17.45841594 67.31090156 13.74754333 53.70458603 C13.05495796 51.16505506 12.36280501 48.62540661 11.67077637 46.08572388 C9.77512309 39.12991233 7.87817729 32.17447747 5.97233486 25.22144985 C5.22151381 22.47947061 4.47367677 19.73668417 3.72664833 16.99366951 C3.22296918 15.14823877 2.71533149 13.30388986 2.20756531 11.45957947 C1.91324112 10.37713455 1.61891693 9.29468964 1.31567383 8.17944336 C1.0595784 7.2441832 0.80348297 6.30892303 0.53962708 5.34532166 C0 3 0 3 0 0 Z " fill="#000000" transform="translate(398,42)"/>
<path d="M0 0 C0.75925781 0.59296875 1.51851562 1.1859375 2.30078125 1.796875 C25.74191536 21.28257795 36.61807607 51.81329809 39.5625 81.3125 C42.48921828 115.38513693 37.64443148 153.09180608 15.75 180.6875 C14.19160558 182.48031956 12.60688364 184.25050862 11 186 C10.55672363 186.49097168 10.11344727 186.98194336 9.65673828 187.48779297 C-6.79502817 205.54293381 -29.9600055 217.02428065 -54.47265625 218.90625 C-55.72369141 218.95265625 -55.72369141 218.95265625 -57 219 C-58.27746094 219.0515625 -59.55492187 219.103125 -60.87109375 219.15625 C-87.38008597 219.86578655 -114.04328097 213.22939869 -134 195 C-134.50772949 194.53996582 -135.01545898 194.07993164 -135.53857422 193.60595703 C-159.57134439 171.57056758 -170.67191254 140.38554677 -172.12573242 108.21801758 C-173.14883813 70.01454038 -165.39420377 33.97920376 -138.57373047 5.58251953 C-102.3147107 -30.87900174 -39.31382676 -31.16557522 0 0 Z M-115 33 C-134.91982701 55.96076115 -136.48653341 86.00435015 -135 115 C-133.24875711 134.94972566 -124.80903596 155.63051603 -109.92578125 169.453125 C-93.82159368 182.38874017 -76.21780525 186.56197626 -56 185 C-39.17121388 182.76247186 -25.18159027 173.71556282 -14.375 160.9375 C-0.93691017 142.73413009 3.43509617 121.2180963 3.375 99 C3.37478851 98.27688629 3.37457703 97.55377258 3.37435913 96.80874634 C3.32639065 80.33191275 1.48187685 64.8981232 -6 50 C-6.44085937 49.07058594 -6.88171875 48.14117187 -7.3359375 47.18359375 C-10.89306858 40.11846324 -15.43280759 34.58635658 -21 29 C-21.61488281 28.36191406 -22.22976563 27.72382812 -22.86328125 27.06640625 C-35.4876152 14.92866333 -52.00428684 11.50354188 -68.92578125 11.65039062 C-87.52492488 12.12109399 -102.4421247 19.54643927 -115 33 Z " fill="#000000" transform="translate(1068,61)"/>
<path d="M0 0 C11.30894973 10.00587572 19.54337806 23.4856387 21.42431641 38.68164062 C21.42431641 41.32164063 21.42431641 43.96164063 21.42431641 46.68164062 C9.54431641 46.68164062 -2.33568359 46.68164062 -14.57568359 46.68164062 C-16.55568359 40.24664062 -16.55568359 40.24664062 -18.57568359 33.68164062 C-24.45754776 23.87853369 -32.84769773 18.79714917 -43.61865234 15.40820312 C-59.40032721 11.53053929 -77.04567135 12.53066712 -91.42724609 20.37304688 C-98.49395399 24.67731441 -102.42318277 30.06913887 -105.88818359 37.49414062 C-107.54290077 45.16601119 -107.36037078 52.69927896 -103.57568359 59.68164062 C-92.77655996 76.21779869 -67.92933765 79.93771116 -50.13818359 84.61914062 C-31.23399662 89.60301647 -13.48189732 94.92941185 2.42431641 106.68164062 C3.26220703 107.29394531 4.10009766 107.90625 4.96337891 108.53710938 C15.74725213 117.22720653 22.54308526 130.07889231 24.42431641 143.68164062 C25.87167151 163.94461211 22.03502036 181.37912321 8.73681641 197.27148438 C-9.1337971 215.89676906 -34.92915749 222.20482146 -59.89477539 222.73046875 C-87.01048575 222.96265543 -112.45140975 216.9153652 -132.76318359 198.05664062 C-145.2276737 185.11655789 -149.22173879 170.28292304 -150.57568359 152.68164062 C-138.36568359 152.68164062 -126.15568359 152.68164062 -113.57568359 152.68164062 C-112.58568359 156.31164062 -111.59568359 159.94164062 -110.57568359 163.68164062 C-106.22821077 174.2397889 -99.58383042 179.47810353 -89.22802734 184.16992188 C-72.78898939 190.97410122 -53.19348149 191.01410325 -36.57568359 184.68164062 C-27.37381713 180.73964967 -19.45403542 175.27322205 -15.13818359 165.99414062 C-11.9084144 157.65649857 -11.74715725 150.31055125 -14.52880859 141.85742188 C-19.79657048 130.90912572 -32.56045185 126.40861124 -43.28262329 122.47091675 C-51.06019478 119.79386047 -59.06986454 117.79930756 -67.01318359 115.68164062 C-109.95713268 104.21100228 -109.95713268 104.21100228 -126.57568359 89.68164062 C-127.26275391 89.10027344 -127.94982422 88.51890625 -128.65771484 87.91992188 C-140.14727907 77.44091206 -144.23041642 63.27844056 -144.95068359 48.18164062 C-144.11506546 30.63365989 -138.0785576 15.32126482 -125.57568359 2.68164062 C-92.60739576 -26.49342091 -34.14621845 -28.56981401 0 0 Z " fill="#000000" transform="translate(857.57568359375,58.318359375)"/>
<path d="M0 0 C2.37823785 0.00315159 4.75521619 -0.02036597 7.13330078 -0.0456543 C21.23613673 -0.10488732 34.71274903 1.84746976 48.20751953 6.06567383 C49.04057617 6.32243896 49.87363281 6.5792041 50.73193359 6.84375 C74.63647147 14.4308623 94.97716739 27.12586266 113.14501953 44.31567383 C113.96615234 45.08395508 114.78728516 45.85223633 115.63330078 46.64379883 C125.93685091 56.57879273 134.09741893 67.87537479 141.14501953 80.31567383 C141.47211914 80.8905957 141.79921875 81.46551758 142.13623047 82.05786133 C151.43734415 98.68190062 157.62146039 117.44111992 160.14501953 136.31567383 C160.28206299 137.30929932 160.28206299 137.30929932 160.421875 138.32299805 C165.68481896 179.98562572 154.22703746 221.98948194 128.92163086 255.33984375 C120.44614907 266.22594129 111.20351583 276.01800926 100.14501953 284.31567383 C99.11248047 285.11360352 98.07994141 285.9115332 97.01611328 286.73364258 C64.1870427 311.56824444 21.64356662 321.79762278 -19.05371094 316.44433594 C-51.79239905 311.46319946 -81.44065489 297.69236233 -105.85498047 275.31567383 C-106.39364746 274.82228516 -106.93231445 274.32889648 -107.48730469 273.82055664 C-127.88963153 254.86558988 -141.82461537 231.03557471 -150.04248047 204.50317383 C-150.28063477 203.74601074 -150.51878906 202.98884766 -150.76416016 202.20874023 C-154.9840661 187.96581787 -156.41366551 173.91313297 -156.29248047 159.12817383 C-156.28910675 158.32307373 -156.28573303 157.51797363 -156.28225708 156.68847656 C-156.02059494 113.4055991 -138.71395636 74.67365894 -108.42138672 43.85913086 C-95.18904521 30.82065471 -79.72220927 20.95962396 -62.85498047 13.31567383 C-62.24187012 13.03739746 -61.62875977 12.75912109 -60.99707031 12.47241211 C-53.57310663 9.16821984 -46.06507304 6.66509991 -38.22998047 4.56567383 C-37.49094482 4.3669165 -36.75190918 4.16815918 -35.99047852 3.96337891 C-24.01648621 0.91466953 -12.30203304 -0.03392798 0 0 Z M-33.85498047 23.31567383 C-34.9590625 23.61320557 -34.9590625 23.61320557 -36.08544922 23.91674805 C-58.68713206 30.11446082 -77.93616368 42.32316907 -94.85498047 58.31567383 C-95.66580078 59.06204102 -96.47662109 59.8084082 -97.31201172 60.57739258 C-115.67630413 78.07408062 -127.21823345 101.05550495 -133.85498047 125.31567383 C-134.04560059 125.98856445 -134.2362207 126.66145508 -134.43261719 127.35473633 C-140.04393606 148.15245584 -138.92435181 174.82577179 -132.85498047 195.31567383 C-132.64067383 196.04592773 -132.42636719 196.77618164 -132.20556641 197.52856445 C-126.40969989 216.61189789 -116.78436531 234.14367002 -103.85498047 249.31567383 C-103.05447266 250.26313477 -102.25396484 251.2105957 -101.42919922 252.18676758 C-78.10083445 278.76382314 -44.04334324 295.42879182 -8.85498047 298.31567383 C28.82397735 300.24908097 65.62284329 289.55358972 94.05908203 264.15161133 C95.09018599 263.20898065 96.1188426 262.26366585 97.14501953 261.31567383 C97.91023926 260.61619629 97.91023926 260.61619629 98.69091797 259.90258789 C124.03236617 236.48946802 140.52696875 202.43287363 142.26977539 167.83935547 C143.47375097 126.8479251 130.10270185 90.53312874 102.14501953 60.31567383 C79.27842888 36.69658959 45.24984708 19.62609593 12.04345703 19.07739258 C-3.67061052 18.84768065 -18.62741505 18.94894551 -33.85498047 23.31567383 Z " fill="#000000" transform="translate(155.85498046875,-0.315673828125)"/>
<path d="M0 0 C1.09441406 0.79857422 1.09441406 0.79857422 2.2109375 1.61328125 C13.36649289 10.49804177 21.40585787 25.0740807 23.71484375 39.0625 C26.32989889 66.00115017 17.16068492 86.63301803 0.30078125 107.34765625 C-5.87111443 114.79748699 -12.39937418 121.93035575 -19 129 C-19.59441895 129.63953613 -20.18883789 130.27907227 -20.80126953 130.93798828 C-28.66647742 139.39483569 -36.61292674 147.74488956 -44.86425781 155.82739258 C-47.84326982 158.76234878 -50.68844384 161.74837284 -53.41796875 164.91796875 C-57.15419361 169.24640115 -61.17082252 173.24692658 -65.25 177.25 C-66.6534099 178.62780023 -68.05453717 180.00793021 -69.453125 181.390625 C-70.06317383 181.98907227 -70.67322266 182.58751953 -71.30175781 183.20410156 C-73.32539369 185.2759287 -73.32539369 185.2759287 -76 189 C-41.68 189.33 -7.36 189.66 28 190 C28 200.56 28 211.12 28 222 C-23.48 222 -74.96 222 -128 222 C-128 195 -128 195 -121.75 186.5625 C-119.59472656 184.45336914 -119.59472656 184.45336914 -117.640625 182.91015625 C-112.24361964 178.44580771 -107.4131741 173.48376569 -102.5 168.5 C-100.84418628 166.86414161 -99.18795354 165.22870723 -97.53125 163.59375 C-94.78408068 160.8511177 -92.14674651 158.07559442 -89.625 155.125 C-84.43308934 149.07681604 -78.64044306 143.5849376 -72.97021484 137.99072266 C-67.66110465 132.7463785 -62.44325897 127.49293517 -57.59179688 121.81445312 C-54.88052626 118.7239373 -51.93595804 115.87496168 -49 113 C-44.11637848 108.16114714 -39.40851377 103.280082 -35 98 C-34.22269531 97.11183594 -33.44539063 96.22367187 -32.64453125 95.30859375 C-21.01465926 81.8137196 -10.70739588 66.57268028 -12 48 C-12.75067067 41.97318691 -14.67443492 37.24309521 -17.78125 32.04296875 C-19 30 -19 30 -20.046875 27.80078125 C-21.31311255 25.4084226 -22.54261221 25.09217235 -25 24 C-25.804375 23.38125 -26.60875 22.7625 -27.4375 22.125 C-37.7901274 15.2576711 -50.94759593 14.51780664 -62.88671875 16.47265625 C-73.1877823 19.17324905 -81.56053766 24.78917711 -87 34 C-90.43196665 41.26199839 -91.53588978 47.94739381 -93 56 C-104.55 56 -116.1 56 -128 56 C-128 35.13573108 -121.57944529 19.08985906 -107.375 3.8125 C-79.29289972 -23.36233242 -30.19368562 -22.49299058 0 0 Z " fill="#000000" transform="translate(1249,55)"/>
<path d="M0 0 C4.47918511 4.39943512 5.56636818 9.47149082 7.1003418 15.3581543 C7.38217316 16.39930389 7.66400452 17.44045349 7.95437622 18.51315308 C8.88092323 21.94717495 9.79002742 25.38556505 10.69921875 28.82421875 C11.34015566 31.21155349 11.98224631 33.59857875 12.6254425 35.98530579 C14.31427723 42.26332155 15.98864854 48.5451031 17.65966797 54.82788086 C19.69576234 62.47363285 21.74734924 70.11523583 23.79820728 77.75703907 C25.39289167 83.69935881 26.98469287 89.64239726 28.5677948 95.58781433 C29.00435646 97.22287178 29.00435646 97.22287178 29.44973755 98.89096069 C29.99475652 100.93229617 30.53814508 102.97406789 31.07963562 105.01634216 C31.31924011 105.91218018 31.5588446 106.80801819 31.80570984 107.73100281 C32.1173182 108.90207848 32.1173182 108.90207848 32.43522167 110.09681225 C32.95805419 112.06133928 32.95805419 112.06133928 34 114 C34.34256836 113.1121582 34.68513672 112.22431641 35.03808594 111.30957031 C36.31714931 108.00295296 37.61010222 104.70191325 38.90722656 101.40234375 C39.46569408 99.97608371 40.02043157 98.54835709 40.57128906 97.11914062 C41.36577484 95.0597876 42.17372139 93.00615867 42.984375 90.953125 C43.22621521 90.31755676 43.46805542 89.68198853 43.71722412 89.02716064 C45.52378442 84.50734787 47.57078433 81.21460783 52 79 C53.60162895 78.88461737 55.20786697 78.83050126 56.81347656 78.80712891 C57.8150177 78.79106598 58.81655884 78.77500305 59.84844971 78.75845337 C64.43590656 78.71401528 69.02321805 78.6729307 73.61083984 78.64990234 C76.02988306 78.63334912 78.4488775 78.6060678 80.86767578 78.56787109 C84.35475045 78.51308033 87.84067771 78.49122303 91.328125 78.4765625 C92.40644592 78.45389313 93.48476685 78.43122375 94.59576416 78.40786743 C102.98241609 78.4314362 102.98241609 78.4314362 106.68188477 81.39013672 C109.05371474 84.06047504 109.80459802 84.99938559 109.6875 88.5 C109.69136719 89.2321875 109.69523438 89.964375 109.69921875 90.71875 C108.60281989 94.29582785 106.95179034 95.70752252 104 98 C100.69361098 98.68527904 97.46988703 98.58319471 94.10546875 98.48828125 C92.68443596 98.47766914 92.68443596 98.47766914 91.23469543 98.46684265 C88.21814979 98.43892334 85.2034816 98.37618915 82.1875 98.3125 C80.13869874 98.28741396 78.0898683 98.26460133 76.04101562 98.24414062 C71.02662379 98.18910459 66.01362986 98.10284856 61 98 C60.885354 98.69335449 60.77070801 99.38670898 60.65258789 100.10107422 C59.91780528 103.36512538 58.80783102 106.2785379 57.55859375 109.3828125 C57.31516739 109.99089249 57.07174103 110.59897247 56.82093811 111.22547913 C56.03124826 113.19395393 55.23494916 115.15965692 54.4375 117.125 C53.89056387 118.47824678 53.34368917 119.83151839 52.796875 121.18481445 C51.7087601 123.87435511 50.6170256 126.56239111 49.52294922 129.24951172 C48.18963643 132.52651581 46.87640153 135.811255 45.56640625 139.09765625 C44.87862093 140.79468327 44.1899055 142.49133381 43.5 144.1875 C43.19892334 144.95143066 42.89784668 145.71536133 42.58764648 146.50244141 C41.00606595 150.33040845 39.76927496 153.0681558 36 155 C29.14390646 155.76178817 29.14390646 155.76178817 25.49772644 153.33360291 C22.60662601 150.63247429 21.95853746 148.95340512 20.9387207 145.16625977 C20.61068954 143.98345428 20.28265839 142.8006488 19.94468689 141.58200073 C19.60470068 140.28522788 19.26507589 138.98836022 18.92578125 137.69140625 C18.55773694 136.33877211 18.18807917 134.98657608 17.81690979 133.63479614 C16.83099346 130.02677616 15.86726616 126.41317858 14.90798187 122.79800034 C13.91684958 119.07718752 12.90602521 115.36173679 11.89697266 111.64575195 C10.30743158 105.78320548 8.7291677 99.91774662 7.15966797 94.04980469 C5.33387053 87.22587594 3.47591928 80.41125541 1.59765625 73.6015625 C0.90109249 71.06736031 0.20515688 68.53298693 -0.49038696 65.99850464 C-0.91086969 64.4672762 -1.33222524 62.93628715 -1.75448608 61.4055481 C-2.32323142 59.33812818 -2.88535387 57.26903292 -3.4453125 55.19921875 C-3.90188232 53.52605591 -3.90188232 53.52605591 -4.36767578 51.8190918 C-5 49 -5 49 -5 45 C-5.66 45 -6.32 45 -7 45 C-7.11174561 45.96405762 -7.22349121 46.92811523 -7.33862305 47.92138672 C-7.99570476 52.49409081 -9.26733712 56.83673396 -10.58203125 61.2578125 C-10.83748215 62.1238913 -11.09293304 62.98997009 -11.35612488 63.8822937 C-11.89561014 65.70341694 -12.43783888 67.52372947 -12.98266602 69.34326172 C-13.81100228 72.1199794 -14.62156799 74.9015013 -15.43164062 77.68359375 C-15.95985453 79.45865596 -16.48911611 81.23340681 -17.01953125 83.0078125 C-17.25823441 83.83499786 -17.49693756 84.66218323 -17.74287415 85.51443481 C-19.13900693 90.10212279 -20.58691413 93.47817332 -24 97 C-26.71887564 98.35943782 -28.8870716 98.14975353 -31.9309082 98.17700195 C-33.17592606 98.18983719 -34.42094391 98.20267242 -35.70368958 98.21589661 C-37.06938276 98.22406428 -38.43508044 98.23150796 -39.80078125 98.23828125 C-40.48775778 98.24235678 -41.17473431 98.2464323 -41.88252831 98.25063133 C-45.51925735 98.27149176 -49.15594867 98.28579304 -52.79272461 98.29516602 C-56.54556008 98.30622525 -60.29780174 98.34061858 -64.05042744 98.38033772 C-66.93897082 98.40650911 -69.82737289 98.41485829 -72.7160244 98.41844749 C-74.09910272 98.42331289 -75.48217475 98.43492574 -76.8651371 98.45348549 C-78.80358175 98.47788099 -80.74231532 98.47449171 -82.6809082 98.4699707 C-84.33398735 98.47877007 -84.33398735 98.47877007 -86.02046204 98.48774719 C-89.69406499 97.8863823 -91.35050682 96.56157028 -94 94 C-95.2238892 91.55222161 -95.016364 90.26609459 -94.75 87.5625 C-94.68296875 86.78003906 -94.6159375 85.99757813 -94.546875 85.19140625 C-93.8956961 82.58203938 -93.10493912 81.63884546 -91 80 C-87.99633486 78.99877829 -86.02260407 78.87887989 -82.88598633 78.88647461 C-81.84513382 78.88655014 -80.80428131 78.88662567 -79.73188782 78.88670349 C-78.60993515 78.89186478 -77.48798248 78.89702606 -76.33203125 78.90234375 C-75.18208176 78.9037587 -74.03213226 78.90517365 -72.84733582 78.90663147 C-69.16903092 78.91223571 -65.49078655 78.92478896 -61.8125 78.9375 C-59.32096442 78.94251445 -56.82942789 78.94707745 -54.33789062 78.95117188 C-48.22523971 78.96220653 -42.11262418 78.97894882 -36 79 C-35.87389847 77.98660553 -35.74779694 76.97321106 -35.61787415 75.92910767 C-35.03107339 72.19759799 -34.17876295 68.75498776 -33.11401367 65.13427734 C-32.92522141 64.48779739 -32.73642914 63.84131744 -32.54191589 63.17524719 C-31.92258296 61.06053797 -31.29582955 58.94812929 -30.66796875 56.8359375 C-30.23047515 55.35579343 -29.79308363 53.87561918 -29.35578918 52.39541626 C-28.44062364 49.30288118 -27.52122037 46.21164088 -26.59936523 43.12109375 C-25.4213875 39.16907977 -24.25871164 35.21274067 -23.09974194 31.25511742 C-22.20247995 28.2003761 -21.2947949 25.1488047 -20.38421059 22.09801102 C-19.95109079 20.64074031 -19.52172754 19.18234742 -19.09627342 17.72282028 C-18.49981471 15.6807571 -17.88882784 13.64358107 -17.27416992 11.60693359 C-16.93077072 10.44890228 -16.58737152 9.29087097 -16.23356628 8.0977478 C-14.91367973 4.7832314 -13.45387606 2.57889019 -11 0 C-7.25347994 -1.24884002 -3.71101175 -1.35334402 0 0 Z " fill="#000000" transform="translate(151,81)"/>
</svg>
